<svg width="530" height="265" viewBox="0 0 530 265" fill="none" xmlns="http://www.w3.org/2000/svg">
<g clip-path="url(#clip0_273_167)">
<path d="M529.134 0H0V264.567H529.134V0Z" stroke="#FEFEFE" stroke-width="0.666709"/>
<path d="M240.756 95.3575H218.797H218.457V95.0173V22.3748V22.0347H218.797H222.387H222.728V22.3748V92.3717H240.756H241.058V92.7118V95.0173V95.3575H240.756ZM276.094 95.3575H272.504H272.164V95.0173V65.8016H266.381H266.079V65.4614V63.1559V62.8158H266.381H272.164V32.6929C272.164 28.9134 272.92 26.0788 274.734 24.189C276.51 22.2614 279.383 21.3166 283.54 21.3166C287.698 21.3166 290.57 22.2614 292.422 24.189C294.236 26.0788 295.03 28.9134 295.03 32.6929V95.0173V95.3575H294.69H291.099H290.759V95.0173V65.8016H276.435V95.0173V95.3575H276.094ZM277.871 26.4189C276.813 27.7417 276.435 29.7827 276.435 32.4662V62.8158H290.759V32.4662C290.759 29.7449 290.343 27.704 289.247 26.3811C288.189 25.0583 286.375 24.4158 283.54 24.4158C280.706 24.4158 278.929 25.0961 277.871 26.4189ZM349.115 24.189C350.929 26.0788 351.723 28.9134 351.723 32.6929V37.8331V38.1732H351.383H347.792H347.452V37.8331V32.4662C347.452 29.7449 347.074 27.704 345.978 26.3811C344.882 25.0583 343.068 24.4158 340.233 24.4158C337.398 24.4158 335.622 25.0961 334.564 26.4189C333.506 27.7417 333.128 29.7827 333.128 32.4662V56.4662C333.128 59.6032 333.392 61.2284 334.488 62.0977C335.622 63.0047 337.739 63.2315 341.48 63.5339C345.26 63.8362 347.792 64.5543 349.417 66.0284C351.08 67.5402 351.723 69.7701 351.723 73.1717V84.6992C351.723 88.4788 350.929 91.3134 349.115 93.241C347.263 95.1307 344.428 96.0756 340.233 96.0756C336.076 96.0756 333.241 95.1307 331.427 93.241C329.613 91.3134 328.894 88.4788 328.894 84.6992V79.1433V78.8032H329.197H332.825H333.128V79.1433V84.926C333.128 87.6851 333.506 89.726 334.564 91.0866C335.622 92.4095 337.398 93.0898 340.233 93.0898C343.068 93.0898 344.882 92.4095 345.978 91.0866C347.074 89.726 347.452 87.6851 347.452 84.926V73.2851C347.452 70.904 347.187 69.3921 346.205 68.4473C345.184 67.5024 343.37 67.0488 340.346 66.8221C336.038 66.4441 333.203 66.104 331.389 64.7433C329.575 63.3827 328.894 61.0772 328.894 56.8819V32.6929C328.894 28.9134 329.613 26.0788 331.427 24.189C333.241 22.2614 336.076 21.3166 340.233 21.3166C344.428 21.3166 347.263 22.2614 349.115 24.189ZM405.581 24.189C407.395 26.0788 408.189 28.9134 408.189 32.6929V37.8331V38.1732H407.849H404.258H403.918V37.8331V32.4662C403.918 29.7449 403.54 27.704 402.444 26.3811C401.348 25.0583 399.534 24.4158 396.699 24.4158C393.865 24.4158 392.088 25.0961 391.03 26.4189C389.972 27.7417 389.594 29.7827 389.594 32.4662V56.4662C389.594 59.6032 389.858 61.2284 390.954 62.0977C392.088 63.0047 394.205 63.2315 397.946 63.5339C401.726 63.8362 404.258 64.5543 405.883 66.0284C407.546 67.5402 408.189 69.7701 408.189 73.1717V84.6992C408.189 88.4788 407.395 91.3134 405.581 93.241C403.729 95.1307 400.894 96.0756 396.699 96.0756C392.542 96.0756 389.707 95.1307 387.893 93.241C386.079 91.3134 385.361 88.4788 385.361 84.6992V79.1433V78.8032H385.663H389.254H389.594V79.1433V84.926C389.594 87.6851 389.972 89.726 391.03 91.0866C392.088 92.4095 393.865 93.0898 396.699 93.0898C399.534 93.0898 401.348 92.4095 402.444 91.0866C403.54 89.726 403.918 87.6851 403.918 84.926V73.2851C403.918 70.904 403.654 69.3921 402.671 68.4473C401.65 67.5024 399.836 67.0488 396.813 66.8221C392.504 66.4441 389.669 66.104 387.855 64.7433C386.041 63.3827 385.361 61.0772 385.361 56.8819V32.6929C385.361 28.9134 386.079 26.0788 387.893 24.189C389.707 22.2614 392.542 21.3166 396.699 21.3166C400.894 21.3166 403.729 22.2614 405.581 24.189ZM442.394 22.0347H445.984H446.324V22.3748V95.0173V95.3575H445.984H442.394H442.054V95.0173V22.3748V22.0347H442.394ZM489.524 95.0929L477.052 22.4126L476.976 22.0347H477.392H480.983H481.247L481.323 22.2992L491.301 81.2977L501.279 22.2992L501.317 22.0347H501.619H505.209H505.587L505.512 22.4126L493.039 95.0929L493.002 95.3575H492.737H489.865H489.562L489.524 95.0929ZM200.693 67.8425V26.4567H137.991C102.274 26.4567 74.3811 34.3559 55.3323 48.1512C35.8299 62.2488 25.5496 82.5827 25.5496 107.074C25.5496 131.49 35.8299 151.748 55.2567 165.77C72.5669 178.28 97.2472 185.877 128.466 187.124C131.565 187.276 134.778 187.313 137.991 187.313H200.693V140.258V104.58V99.4394H200.769L201.751 99.515C202.28 99.5528 202.658 99.5906 203.187 99.6662C224.769 103.181 241.625 111.458 253.191 123.364C265.247 135.723 271.559 151.937 271.559 170.835C271.559 193.096 262.791 211.578 246.198 224.391C230.324 236.636 207.383 243.628 178.091 243.628H126.576H123.817V240.869V198.841V192.416C93.5811 190.564 69.3921 182.74 52.0441 170.23C31.1055 155.15 20.0315 133.342 20.0315 107.074C20.0315 80.7685 31.1055 58.8473 52.0819 43.6914C72.0756 29.2158 101.065 20.9386 137.991 20.9386H203.452H206.211V23.6977V67.8425H200.693ZM206.211 105.789V140.258V190.072V192.832H203.452H137.991C135.08 192.832 132.17 192.794 129.335 192.68V198.841V238.11H178.091C206.098 238.11 227.943 231.572 242.835 220.044C258.028 208.328 266.041 191.32 266.041 170.835C266.041 153.411 260.258 138.482 249.26 127.181C239.206 116.825 224.731 109.455 206.211 105.789ZM330.671 239.357H297.411V189.695H330.671V185.461H297.411V115.465H330.671V111.043H290.872V185.461H279.685V189.695H290.872V243.628H330.671V239.357ZM420.208 129.865C420.208 116.372 414.728 109.72 399.874 109.72C384.983 109.72 379.729 116.372 379.729 129.865V224.769C379.729 238.261 384.983 244.913 399.874 244.913C414.728 244.913 420.208 238.261 420.208 224.769V214.602H413.631V225.146C413.631 235.465 410.57 240.643 399.874 240.643C389.14 240.643 386.306 235.502 386.306 225.146V129.487C386.306 119.32 389.14 114.18 399.874 114.18C410.57 114.18 413.631 119.169 413.631 129.487V139.276H420.208V129.865ZM502.526 225.146C502.526 235.465 499.465 240.643 488.731 240.643C478.035 240.643 475.2 235.313 475.2 225.146V129.487C475.2 119.32 478.035 114.18 488.731 114.18C499.465 114.18 502.526 119.169 502.526 129.487V225.146ZM468.624 224.769C468.624 238.261 473.877 244.913 488.731 244.913C503.622 244.913 509.102 238.261 509.102 224.769V129.865C509.102 116.372 503.622 109.72 488.731 109.72C473.877 109.72 468.624 116.372 468.624 129.865V224.769Z" fill="#2B2A29"/>
</g>
<defs>
<clipPath id="clip0_273_167">
<rect width="529.134" height="264.567" fill="white"/>
</clipPath>
</defs>
</svg>
