<svg width="500" height="125" viewBox="0 0 500 125" fill="none" xmlns="http://www.w3.org/2000/svg">
<path d="M228.177 82.7305C226.594 88.9466 222.637 91.094 218.227 91.094C211.669 91.094 207.259 86.5732 207.259 76.9665V58.9964H200.475C201.719 54.8146 204.093 51.8761 207.259 51.311V48.5985C207.259 44.8689 210.651 41.3653 216.757 38.9918V51.085H226.934C226.368 56.2839 222.75 58.8833 219.019 58.8833H216.644V76.0624C216.644 81.4873 219.81 82.6175 222.524 82.6175C223.428 82.7305 228.177 82.7305 228.177 82.7305ZM195.387 82.7305C192.673 82.7305 189.507 81.6003 189.507 76.1754V58.9964H191.882C195.613 58.9964 199.118 56.3969 199.796 51.198H189.62V38.9918C183.514 41.3653 180.122 44.8689 180.122 48.5985V51.198C176.956 51.7631 174.582 54.7016 173.338 58.8833H180.122V76.8535C180.122 86.4602 184.532 90.981 191.09 90.981C195.5 90.981 199.457 88.7206 201.04 82.6175C200.927 82.7305 196.291 82.7305 195.387 82.7305ZM431.14 55.1537C432.497 54.5886 435.663 52.2152 436.115 48.3725C436.115 48.3725 432.61 48.4855 428.313 48.2595C424.129 48.0334 418.928 47.8074 416.554 47.8074C411.239 47.8074 407.395 48.4855 404.681 49.9548C400.95 51.9891 399.028 57.075 399.028 62.726C399.028 71.2025 400.95 74.5931 404.342 76.6275C404.342 76.6275 400.271 78.7748 400.271 83.7477C400.271 86.9123 402.194 88.9466 402.194 88.9466C402.194 88.9466 397.784 92.2242 397.784 97.9882C397.784 106.013 404.003 108.951 416.327 108.951C428.426 108.951 436.115 107.369 436.115 95.6148C436.115 85.217 429.104 83.4087 418.928 83.1826C412.257 83.0696 408.978 83.2956 408.978 80.3571C408.978 79.0009 410.109 78.0967 410.787 77.9837C410.787 77.9837 413.048 78.4358 415.762 78.4358C427.069 78.4358 432.157 76.1754 432.157 62.839C432.044 57.6401 431.14 55.1537 431.14 55.1537ZM303.37 84.9909L292.515 68.49L304.5 54.3625C307.214 51.085 306.196 49.0506 304.839 48.3725H292.062V49.3897C295.002 50.2938 294.437 52.4412 292.515 54.8146L281.434 68.377V36.5054C281.434 33.2278 280.19 31.8716 276.798 31.8716H268.091V32.8888C270.805 33.6799 271.936 35.4882 271.936 38.4267V86.0081C271.936 89.2857 273.18 90.6419 276.572 90.6419H285.052V89.3987C282.338 88.1555 281.321 86.4602 281.321 84.0868V68.603L292.175 86.2342C293.985 89.2857 295.115 90.6419 298.621 90.6419H308.345V89.3987C305.744 88.2685 305.066 87.3643 303.37 84.9909ZM351.538 53.0063C351.538 49.7287 350.294 48.3725 346.902 48.3725H338.195V49.3897C340.909 50.1808 342.04 51.9891 342.04 54.9276V86.0081C342.04 89.2857 343.284 90.6419 346.676 90.6419H355.156V89.3987C352.442 88.1555 351.425 86.4602 351.425 84.0868V53.0063H351.538ZM393.374 84.0868V59.5615C393.374 52.5542 387.721 48.1464 379.579 48.1464C374.604 48.1464 371.212 50.4068 368.951 52.8933C368.951 49.7287 367.707 48.2595 364.315 48.2595H355.608V49.2766C358.322 50.0678 359.453 51.8761 359.453 54.8146V85.8951C359.453 89.1727 360.697 90.5289 364.089 90.5289H372.569V89.2857C369.855 88.0425 368.838 86.3472 368.838 83.9738V64.9864C369.177 61.9349 371.664 57.188 377.092 57.188C381.502 57.188 383.876 59.7875 383.876 63.2911V86.0081C383.876 89.2857 385.12 90.6419 388.512 90.6419H396.992V89.3987C394.392 88.2685 393.374 86.4602 393.374 84.0868ZM331.75 48.3725C326.888 48.3725 323.948 50.2938 321.913 53.5714V53.0063C321.913 49.7287 320.669 48.3725 317.277 48.3725H308.571V49.3897C311.284 50.1808 312.415 51.9891 312.415 54.9276V86.0081C312.415 89.2857 313.659 90.6419 317.051 90.6419H325.531V89.3987C322.818 88.1555 321.8 86.4602 321.8 84.0868V59.7875C321.913 58.3182 323.835 58.2052 326.323 58.2052C331.75 58.2052 334.012 56.6229 335.595 48.3725H331.75ZM496.043 48.3725C491.18 48.3725 488.241 50.2938 486.205 53.5714V53.0063C486.205 49.7287 484.962 48.3725 481.569 48.3725H472.863V49.3897C475.577 50.1808 476.707 51.9891 476.707 54.9276V86.0081C476.707 89.2857 477.951 90.6419 481.343 90.6419H489.824V89.3987C487.11 88.1555 486.092 86.4602 486.092 84.0868V59.7875C486.205 58.3182 488.128 58.2052 490.615 58.2052C496.043 58.2052 498.304 56.6229 499.887 48.3725H496.043ZM267.3 89.3987V90.6419H258.82C256.219 90.6419 254.975 88.9466 254.523 86.7993C251.922 89.1727 248.078 90.755 242.877 90.755C234.283 90.755 230.1 85.104 230.1 77.9837C230.1 68.49 235.414 63.7432 249.774 63.7432C251.809 63.7432 253.505 63.8562 254.184 63.9692C254.184 59.2224 253.957 55.6058 242.763 55.6058C237.562 55.6058 232.248 56.3969 232.248 56.3969C233.718 50.5199 236.884 47.5813 248.078 47.5813C259.272 47.5813 263.682 51.424 263.682 58.0922V84.1998C263.569 86.4602 264.586 88.2685 267.3 89.3987ZM254.184 73.802V70.6374C253.618 70.5244 252.148 70.4114 248.191 70.4114C242.763 70.4114 240.163 73.3499 240.163 76.6275C240.163 79.905 241.633 82.3915 246.721 82.2785C251.696 82.0524 253.957 80.0181 254.184 73.802ZM345.884 31.7586C342.831 31.7586 340.344 34.245 340.344 37.2965C340.344 40.3481 342.831 42.8345 345.884 42.8345C348.937 42.8345 351.425 40.3481 351.425 37.2965C351.425 34.245 348.937 31.7586 345.884 31.7586ZM408.865 63.2911C408.865 57.188 411.465 56.1709 415.649 56.1709C419.72 56.1709 422.433 57.075 422.433 63.2911C422.433 69.3942 419.72 70.6374 415.649 70.6374C411.578 70.6374 408.865 69.3942 408.865 63.2911ZM416.78 91.8852C421.529 91.8852 424.242 91.8851 425.486 93.3544C425.938 93.9195 426.504 94.8237 426.504 96.0669C426.504 97.4231 425.939 98.5533 425.373 99.1184C424.016 100.588 421.076 100.475 416.78 100.475C407.508 100.475 406.716 97.8752 406.716 95.8408C406.716 92.6763 409.317 91.3201 409.317 91.3201C409.317 91.3201 409.769 91.8852 416.78 91.8852ZM458.277 82.9566C465.4 82.9566 470.375 82.2785 470.375 82.2785C468.566 91.207 460.538 91.3201 454.206 91.3201C439.507 91.3201 437.472 83.8607 437.472 69.6202C437.472 60.5786 438.942 54.1365 442.221 51.311C444.821 49.0506 448.892 48.1464 454.885 48.1464C458.616 48.1464 464.157 48.1464 467.662 51.424C469.697 53.3454 470.941 56.2839 470.941 61.0307C470.941 69.3942 466.644 73.915 457.033 73.915C452.397 73.915 448.779 73.6889 447.309 73.5759C447.648 80.3571 449.457 82.9566 458.277 82.9566ZM447.083 66.6817C448.1 66.9078 449.91 67.1338 452.284 67.1338C456.015 67.1338 461.104 66.6817 461.104 61.3698C461.104 57.7531 459.068 56.3969 454.432 56.3969C448.553 56.3969 447.083 58.9964 447.083 66.6817ZM142.922 25.7685C140.66 25.7685 132.632 26.1076 127.657 28.82C121.099 32.4367 114.428 44.1908 114.428 61.8219C114.428 68.8291 118.498 84.7649 122.117 88.7206C124.717 91.5461 140.547 97.5361 144.957 97.5361C146.766 97.5361 149.141 95.7278 157.282 89.5117C161.918 85.8951 166.214 82.1654 166.893 81.1483C169.154 77.7577 170.737 69.3942 170.737 56.0578C170.737 40.2351 161.918 25.3164 156.49 25.3164C154.568 25.3164 150.724 27.4638 147.218 29.0461C142.696 31.0804 138.173 32.7757 136.703 33.1148C135.572 33.4539 135.12 33.3408 135.12 33.3408C136.137 31.8716 137.381 30.4023 139.19 29.4982C140.773 28.594 141.791 28.2549 143.6 27.9159C145.409 27.4638 146.427 27.2378 146.427 26.6727C146.314 26.1076 144.731 25.7685 142.922 25.7685ZM151.063 36.7314C155.247 41.1392 158.186 48.8246 158.186 61.5958C158.186 73.915 156.603 78.0967 153.437 83.0696C150.271 87.9295 146.992 87.3643 140.095 84.9909C131.728 82.0524 130.145 78.5488 128.788 71.2025C126.64 60.0135 128.109 50.0678 131.049 43.1736C132.972 38.7658 136.251 37.6356 140.095 36.2794C146.879 33.5669 148.801 34.358 151.063 36.7314ZM56.0832 20.5696C57.5531 20.0045 58.5708 19.7785 58.5708 19.7785C58.5708 19.7785 58.3446 19.1003 57.2139 18.8743C56.0832 18.6483 55.5179 18.6483 55.5179 18.6483C55.5179 18.6483 55.8571 17.5181 56.9878 17.292C58.1185 17.179 59.0231 17.405 59.0231 17.405C59.0231 17.405 59.1361 16.8399 58.2316 16.3879C57.4401 15.9358 56.4224 15.8228 56.4224 15.8228C56.4224 15.8228 57.1009 14.8056 58.2316 15.0316C59.3623 15.2577 59.8146 15.2577 59.8146 15.2577C59.8146 15.2577 60.0407 14.6926 58.91 14.1275C58.3446 13.9014 57.2139 13.7884 57.2139 13.7884C57.2139 13.7884 57.7793 12.6582 59.1361 12.8842C60.493 13.1103 60.3799 12.8842 60.3799 12.8842C60.3799 12.8842 60.7191 12.6582 59.4754 11.8671C58.2316 11.1889 58.2316 10.3978 58.2316 10.3978C58.2316 10.3978 59.4754 9.8327 59.7015 9.49364C59.9276 9.2676 59.9276 9.04156 59.9276 8.7025C58.5708 8.47646 56.8747 8.1374 55.6309 7.91136C55.6309 7.34626 56.3094 7.12022 56.7616 7.23324C57.6662 7.23324 58.5708 7.45928 59.4754 7.5723C59.9276 6.89418 60.6061 5.65097 60.6061 5.65097L61.6237 7.45928L62.076 7.23324C62.076 7.23324 63.2067 4.63379 63.4328 4.29473C63.772 3.72963 65.0158 3.39057 65.5812 3.27755C67.5034 2.48641 68.7472 2.37339 68.8602 3.61661C68.9733 4.52077 68.2949 4.85983 67.9557 5.53795C67.5034 6.55512 67.6165 7.5723 67.0511 8.81552C66.1465 10.0587 65.1289 11.528 64.2243 12.9973C63.659 13.9014 63.3198 14.4665 63.3198 14.8056C63.4328 15.4837 64.2243 16.1618 64.1113 17.179C65.0158 17.6311 65.9204 18.1962 65.9204 19.5524C66.938 20.0045 67.2773 20.6826 67.2773 21.1347V23.2821C67.2773 24.0732 66.4858 25.3164 66.5988 25.5425C66.5988 26.4466 66.5988 27.1247 66.7119 27.8029C66.7119 28.1419 66.825 28.9331 66.825 29.1591C66.7119 30.0633 66.0335 30.1763 65.4681 30.4023C69.3125 38.4267 74.0615 48.0334 77.9059 56.1709C78.4713 57.3011 78.9236 58.6573 79.602 59.6745C80.1673 60.5786 82.3157 61.8219 82.3157 61.8219L82.0896 64.0823L79.9412 66.6817L79.7151 78.3228L92.1529 87.7034C92.379 87.8164 97.8064 85.556 97.8064 85.556C95.545 88.4945 94.3012 89.6247 90.9091 91.6591C86.6124 94.1455 80.9588 95.9539 77.9059 97.0841C77.1144 97.4231 77.3406 97.8752 78.019 97.7622C79.9412 97.5361 81.6373 97.3101 82.8811 97.0841C83.6726 96.971 83.7856 97.5361 83.1072 97.8752C78.4713 100.136 74.4007 101.379 68.408 102.961C53.0303 107.03 37.2004 110.872 21.7096 114.715C14.0208 116.637 6.55812 119.01 0 122.287C0.791497 120.14 4.18363 117.428 4.18363 117.428V113.472L0.452284 112.794L0.113071 112.229L3.39213 109.742L6.55812 107.03C6.55812 107.03 7.8019 105.221 8.48033 104.204C11.5332 99.4575 14.5862 94.8237 17.6391 90.0768C18.3175 89.0596 18.9959 88.2685 19.3351 87.1383C19.7874 86.0081 20.5789 83.8607 20.5789 83.8607L19.4482 83.2956C19.2221 83.1826 18.5436 82.3915 18.5436 82.0524C18.6567 81.7134 21.9358 78.7748 23.2926 77.1926C25.441 74.8191 25.8933 74.254 27.3632 72.4457C29.1723 70.0723 30.6422 67.3598 30.6422 67.3598L33.1298 62.1609L40.1402 64.6474L38.7834 61.4828L41.0448 60.3526L53.1434 34.245C53.1434 34.245 54.2741 31.4195 54.2741 29.0461C55.9702 27.8029 58.2316 27.8029 61.2845 27.6898H63.2067V22.2649C62.6413 22.0389 61.3976 21.9258 61.3976 21.9258V25.4294H60.0407V21.8128C58.1185 21.6998 55.8571 21.9258 54.7264 22.6039C54.7264 22.717 54.6133 21.1347 56.0832 20.5696ZM51.2212 55.6058C51.2212 55.6058 56.7616 40.6871 59.0231 32.2106H61.1714L69.0864 55.7188L73.27 57.6401C73.27 57.6401 66.3727 39.2179 63.5459 30.8544C62.7544 29.1591 58.5708 30.1763 57.327 30.1763L56.9878 30.8544C56.6486 30.9674 45.0023 54.9276 42.6278 59.7875L51.2212 55.6058ZM62.076 63.4041C57.8924 59.9005 55.2917 59.5615 55.2917 59.5615L55.1787 64.4213L56.1963 63.4041C56.1963 63.4041 68.6341 71.9936 69.3125 72.4457C69.7648 72.7848 70.2171 72.3327 69.8779 71.9936C68.2949 69.6202 64.9028 65.6645 62.076 63.4041ZM48.1682 60.1266C46.5853 60.9177 43.4193 62.726 43.4193 62.726L43.3062 66.0036L48.1682 67.6989L49.299 70.7504L52.9172 66.9078L53.0303 58.8833C50.882 58.8833 49.7512 59.2224 48.1682 60.1266ZM30.5292 104.43C29.6246 104.882 26.7978 107.595 26.6848 107.595L26.5717 107.708L57.7793 99.4575V78.8879C57.7793 78.8879 64.9028 78.6618 65.5812 78.6618C66.2596 78.6618 66.1465 78.0967 65.6943 77.9837C64.9028 77.7577 62.076 76.7405 62.076 76.7405C62.076 76.7405 56.8747 76.4014 55.744 76.4014C55.2917 76.4014 49.412 78.8879 49.412 78.8879V95.6148C49.412 95.6148 31.4337 103.978 30.5292 104.43ZM24.8756 99.9096C27.2501 98.4403 28.2678 93.8065 29.2854 89.3987L31.6599 79.566C31.6599 79.566 26.9109 82.5045 23.9711 84.0868C23.9711 84.0868 21.7096 86.6862 21.0312 87.9295C20.2397 89.3987 7.0104 109.742 7.0104 109.742C7.0104 109.742 21.8227 101.492 24.8756 99.9096ZM13.2293 108.951C11.4202 109.855 7.12347 112.229 7.12347 112.229V116.071C9.49797 114.828 11.5332 113.811 14.4731 112.681C16.9607 111.664 22.9534 109.855 22.9534 109.855V104.091C22.9534 104.091 15.1515 108.047 13.2293 108.951ZM31.5468 76.4014C36.1827 73.6889 35.5043 66.7947 35.5043 66.7947C35.5043 66.7947 31.773 69.2812 30.0769 71.6546C28.3808 73.915 22.8403 81.0352 22.8403 81.0352C22.8403 81.0352 26.9109 79.1139 31.5468 76.4014Z" fill="#004A2B"/>
</svg>
